Patient4_TMGait_0pt8_01_left_15_EMG.mot
version=1
nRows=23
nColumns=33
inDegrees=no
endheader
time	1LAddLong	2LGlutMax	3LGlutMed	4LIliopsoas	5LSemiMemb	6LBicFemLong	7LRecFem	8LVastMed	9LVastLat	10LGasMed	11LTibAnt	12lTibPost	13LPeroneusLong	14LSol	15LExtDigLong	16LFlexDigLong	17RAddLong	18RGlutMax	19RGlutMed	20RIliopsoas	21RSemiMemb	22RBicFemLong	23RRecFem	24RVastMed	25RVastLat	26RGasMed	27RTibAnt	28RTibPost	29RPeroneusLong	30RSol	31RExtDigLong	32RFlexDigLong
16.79	-0.047455	0.085907	0.39276	0.010986	-0.001678	-0.00885	-0.093994	0.012207	-0.007935	0.084534	0.004425	0.23956	-0.25681	0.005951	-0.006409	-0.12863	0.012665	-0.081329	-0.14297	0.019226	-0.32715	0.36041	-0.69855	-0.076447	0.38483	-0.005493	0.020752	-0.000153	0.084381	-0.025024	-0.003815	-0.024872
16.791	-0.008087	0.098114	0.39185	0.006104	-0.003662	0.009613	-0.069733	0.010529	0.005798	0.32044	0.006714	0.40298	-0.17471	0.43304	-0.000153	0.007935	0.058746	-0.28961	-0.067596	-0.046387	-0.014648	0.44846	-0.49057	-0.30716	0.005035	-0.007629	0.036621	-0.001373	0.065613	-0.029449	-0.005798	-0.019073
16.792	0.026703	0.08255	0.40039	0.00473	-0.015259	0.029755	-0.054626	0.003662	0.021057	0.080872	0.007019	0.40741	-0.02182	0.78491	-0.002441	0.34424	0.071106	-0.27802	0.085144	-0.032806	0.3157	0.38086	-0.2681	-0.25238	-0.19455	-0.000916	0.029297	-0.001526	0.073853	-0.016632	-0.000458	-0.018463
16.793	0.037384	0.075684	0.39734	0.015106	-0.036163	0.042114	-0.057068	0.00061	0.034027	0.27008	0.00885	-0.61783	-0.002136	0.99869	-0.011292	0.17105	0.048523	-0.1416	0.23651	0.015564	0.50049	0.39993	-0.22781	-0.13962	-0.3096	-0.003662	0.025635	-0.003052	0.12054	-0.044708	-0.00351	-0.026703
16.794	0.025787	0.073395	0.38773	0.001373	-0.040588	0.011749	-0.050659	-0.003052	0.059052	0.38071	0.000153	0.25559	-0.081024	0.86929	-0.048828	0.053558	0.05188	-0.19943	0.13657	0.005035	0.21774	0.26352	-0.31677	-0.005035	-0.44968	0.000916	0.019226	-0.001526	0.215	-0.052338	-0.002747	-0.015106
16.795	0.012665	0.081329	0.39719	0.00885	-0.037231	-0.009308	-0.060577	0.004425	0.064545	0.29037	0.002899	0.003815	0.074463	0.76721	-0.028381	-0.36102	0.075836	-0.30273	0.036163	-0.078125	-0.11169	0.032501	-0.35828	-0.19226	-0.49744	-0.004883	0.007935	-0.000153	0.21866	-0.048218	-0.001221	-0.01297
16.796	0.022888	0.061951	0.3952	0.003815	-0.048828	-0.025482	-0.058441	0.011139	0.07782	0.30899	0.010986	0.045319	0.1294	0.77591	0.018158	0.38101	0.10895	-0.25345	-0.007477	-0.042419	-0.24582	-0.078125	-0.1767	-0.04425	-0.43625	-0.004883	0.073395	0.00061	0.21744	-0.0354	-0.002441	-0.020142
16.797	0.029907	0.073853	0.39932	0.00824	-0.035095	-0.089569	-0.014191	0.004425	0.070953	0.38208	0.005951	-0.082703	0.10361	-0.61447	-0.000916	-0.06485	0.079498	-0.009003	0.025024	-0.032196	-0.1799	-0.081482	0.074768	0.2034	-0.56961	-0.001678	0.18158	-0.000916	0.13336	-0.055237	-0.001831	-0.018005
16.798	0.016937	0.022736	0.43015	0.013123	-0.003967	-0.17853	0.008392	0.00473	0.04715	0.46066	-0.005035	-0.087128	0.066833	-1.6544	0.005493	-0.1886	0.078278	-0.074158	-0.040283	0.046082	-0.052185	-0.012207	0.12421	0.21378	-0.45883	0.001068	0.29114	0.000153	-0.022888	-0.082703	0.001526	-0.007629
16.799	0.024872	-0.01297	0.41458	0.031891	0.03479	-0.21378	0.023956	-0.001678	0.050049	1.0121	-0.003967	-0.09552	0.046539	-1.4798	-0.009918	0.4335	0.073242	-0.15182	-0.20187	0.14023	0.15717	0.049438	0.007629	0.15732	-0.23727	0	0.34241	-0.005188	-0.26321	-0.068512	-0.002289	-0.020599
16.8	0.036621	-0.031433	0.3891	0.019684	0.04715	-0.23453	0.025787	0.00473	0.039673	0.73746	-0.009918	-0.061951	0.10422	-0.82855	0.025177	0.001526	-0.032196	-0.071869	-0.21469	0.040283	0.24216	0.22369	-0.22339	0.1181	0.025024	-0.007019	0.098114	0.000916	-0.020905	0.003967	-0.001068	-0.018616
16.801	0.024872	-0.042572	0.38025	0.014496	0.036011	-0.1767	0.023651	-0.006256	0.037689	-0.39459	-0.01297	-0.045319	0.18143	-0.36591	0.043182	-0.074768	-0.071259	-0.10513	-0.31769	0.000763	0.5304	0.38773	-0.46661	0.14191	0.48538	0.002899	-0.12344	-0.003357	0.062561	-0.055389	-0.007935	-0.021057
16.802	0.032959	-0.072937	0.37735	0.011292	0.02655	-0.094299	0.002747	0.003052	0.03891	-0.45609	-0.005188	-0.04837	0.23025	0.29175	0.05249	-0.55542	-0.062866	-0.001373	-0.27527	-0.15869	0.49377	0.48813	-0.52414	0.50583	0.78186	-0.008392	-0.018921	-0.006409	-0.64316	-0.10086	-0.006714	-0.005035
16.803	0.026398	-0.088348	0.39093	0.00946	-0.003967	-0.060272	-0.038605	-0.003052	0.053558	-0.13825	-0.003967	-0.042877	0.24368	0.24658	0.018768	0.84915	-0.063934	-0.068512	-0.21408	-0.29343	0.38605	0.62164	-0.64804	0.44342	1.0115	-0.001526	0.030975	-0.000153	-0.91141	-0.12619	-0.002747	-0.013428
16.804	0.02121	-0.11231	0.3801	-0.00061	-0.005493	0.006256	-0.051575	-0.001678	0.056458	0.33325	0.002136	-0.022278	0.16068	-0.19257	-0.003967	-0.076904	-0.031586	-0.12878	-0.37033	-0.20172	0.19775	0.39795	-0.59143	0.61905	0.85724	-0.002136	0.2594	0.000153	-0.48111	-0.1619	0.000153	-0.014496
16.805	0.028687	-0.11948	0.37033	-0.011139	0.007782	-0.00946	-0.058746	-0.003662	0.05127	0.18768	0.009308	-0.030975	0.10895	-0.59509	-0.018616	-0.047455	-0.009155	-0.23697	-0.59158	0.067139	0.17654	0.23819	-0.39276	0.6311	0.47501	0.003967	0.10666	0.001221	0.4039	-0.18616	-0.001831	-0.0177
16.806	0.016785	-0.15274	0.36545	-0.010986	0.021362	-0.035858	-0.026703	0.000305	0.045166	-0.11871	0.002441	0.059662	0.088196	-0.63248	-0.022278	-0.16037	-0.017395	-0.31525	-0.06897	0.29282	0.10239	0.083008	-0.27283	0.56915	-0.018158	-0.000458	-0.46967	-0.00412	0.35858	-0.16769	-0.00351	-0.008698
16.807	0.031281	-0.15701	0.3627	0.00946	0.021667	0.009155	-0.027161	-0.003662	0.049133	-0.76126	-0.002136	0.46097	0.1149	-0.33615	-0.028076	0.42404	0.017395	-0.30991	0.2095	0.39658	-0.030212	-0.069885	-0.031128	0.30151	-0.3862	0.005341	-0.55115	-0.007019	0.61661	-0.17395	-0.002136	-0.003357
16.808	0.02655	-0.1532	0.35645	0.040131	0.014648	0.04364	-0.023041	-0.007019	0.047455	-1.2717	0.00351	-0.48355	0.097961	-0.14465	-0.028992	-0.1326	0.029755	-0.41519	0.53314	0.26611	0.060425	-0.20981	0.060883	0.035248	-0.67749	0.006104	-0.3212	-0.006714	0.69778	-0.21561	-0.003967	-0.011749
16.809	0.028381	-0.17029	0.35706	0.03418	-0.001831	0.031433	-0.015106	-0.003662	0.028687	-0.80444	-0.005798	-0.035858	0.082703	0.055084	-0.019684	-0.13748	-0.013123	-0.46768	0.52856	0.079346	0.14557	-0.19608	0.12924	0.8464	-0.95825	0.000916	-0.13138	-0.000763	0.31265	-0.18784	-0.003052	-0.00351
16.81	0.022736	-0.16281	0.31418	0.019989	-0.004425	0.026093	-0.009003	-0.001526	0.007629	-0.23621	-0.019989	0.029449	0.074158	0.30701	-0.024414	-0.068359	0.010529	-0.28824	-0.121	0.036316	0.20584	-0.11963	0.35187	0.71289	-0.95551	-0.000305	0.28656	-0.011139	0.30884	-0.12711	-0.003052	-0.000916
16.811	0.020905	-0.1207	0.31784	0.011292	-0.000153	0.032349	0.000458	0.002289	0.005341	0.30426	0.003815	-0.007324	-0.006256	0.56793	-0.026855	0.070953	0.070343	-0.057831	-0.50034	0.027161	0.20981	0.027313	0.53436	0.19226	-0.63736	-0.007935	-0.14816	-0.001831	0.34058	-0.054016	-0.001678	0.001526
16.812	0.020905	-0.081024	0.31647	0.024567	-0.02121	0.065765	0.00061	0.001984	0.012207	0.067444	0.002594	0.1622	-0.011902	0.68878	-0.007477	-0.20691	0.10223	0.14801	-0.18646	-0.02243	0.17639	0.00946	0.52628	-0.29755	-0.38055	0.002747	-1.2038	-0.006561	0.38284	-0.094757	-0.001068	0.007782
